<svg width="34" height="33" viewBox="0 0 34 33" fill="none" xmlns="http://www.w3.org/2000/svg">
<path d="M24.6002 3.07271C24.3374 1.81945 23.1962 0.873047 21.8313 0.873047C21.5193 0.873047 21.2661 1.11886 21.2661 1.42296C21.2661 1.72707 21.5193 1.97288 21.8313 1.97288C22.7661 1.97288 23.5269 2.71307 23.5269 3.62263C23.5269 4.53219 22.7661 5.27238 21.8313 5.27238C21.5193 5.27238 21.2661 5.51819 21.2661 5.82229C21.2661 6.12639 21.5193 6.37221 21.8313 6.37221C23.1957 6.37221 24.3374 5.4258 24.6002 4.17254H32.0048V9.12179H1.48442V4.17254H9.3971H11.0927C11.4047 4.17254 11.6579 3.92673 11.6579 3.62263C11.6579 3.31852 11.4047 3.07271 11.0927 3.07271H10.0663C10.3003 2.43371 10.922 1.97288 11.6579 1.97288C12.5927 1.97288 13.3534 2.71307 13.3534 3.62263C13.3534 4.53219 12.5927 5.27238 11.6579 5.27238C11.3459 5.27238 11.0927 5.51819 11.0927 5.82229C11.0927 6.12639 11.3459 6.37221 11.6579 6.37221C13.2161 6.37221 14.4838 5.13875 14.4838 3.62263C14.4838 2.10651 13.2161 0.873047 11.6579 0.873047C10.2935 0.873047 9.1518 1.81945 8.88899 3.07271H0.354034V10.2216V32.2183H33.1351V10.2216V3.07271H24.6002ZM32.0048 31.1184H1.48442V10.2216H32.0048V31.1184Z" fill="white"/>
<path d="M15.049 1.97288C15.9839 1.97288 16.7446 2.71307 16.7446 3.62263C16.7446 4.53219 15.9839 5.27238 15.049 5.27238C14.7371 5.27238 14.4839 5.51819 14.4839 5.82229C14.4839 6.12639 14.7371 6.37221 15.049 6.37221C16.6073 6.37221 17.875 5.13875 17.875 3.62263C17.875 2.10651 16.6073 0.873047 15.049 0.873047C14.7371 0.873047 14.4839 1.11886 14.4839 1.42296C14.4839 1.72707 14.7371 1.97288 15.049 1.97288Z" fill="white"/>
<path d="M18.4402 1.97288C19.375 1.97288 20.1358 2.71307 20.1358 3.62263C20.1358 4.53219 19.375 5.27238 18.4402 5.27238C18.1282 5.27238 17.875 5.51819 17.875 5.82229C17.875 6.12639 18.1282 6.37221 18.4402 6.37221C19.9984 6.37221 21.2662 5.13875 21.2662 3.62263C21.2662 2.10651 19.9984 0.873047 18.4402 0.873047C18.1282 0.873047 17.875 1.11886 17.875 1.42296C17.875 1.72707 18.1282 1.97288 18.4402 1.97288Z" fill="white"/>
<path d="M5.4408 14.6206H17.875C18.187 14.6206 18.4402 14.3748 18.4402 14.0707C18.4402 13.7666 18.187 13.5208 17.875 13.5208H5.4408C5.12882 13.5208 4.87561 13.7666 4.87561 14.0707C4.87561 14.3748 5.12882 14.6206 5.4408 14.6206Z" fill="white"/>
<path d="M28.0485 22.3196H19.5706C19.2586 22.3196 19.0054 22.5654 19.0054 22.8695C19.0054 23.1736 19.2586 23.4194 19.5706 23.4194H28.0485C28.3605 23.4194 28.6137 23.1736 28.6137 22.8695C28.6137 22.5654 28.3605 22.3196 28.0485 22.3196Z" fill="white"/>
<path d="M5.4408 19.0202H11.0927C11.4047 19.0202 11.6579 18.7744 11.6579 18.4703C11.6579 18.1662 11.4047 17.9204 11.0927 17.9204H5.4408C5.12882 17.9204 4.87561 18.1662 4.87561 18.4703C4.87561 18.7744 5.12882 19.0202 5.4408 19.0202Z" fill="white"/>
<path d="M28.0485 26.719H22.3966C22.0846 26.719 21.8314 26.9648 21.8314 27.2689C21.8314 27.573 22.0846 27.8188 22.3966 27.8188H28.0485C28.3605 27.8188 28.6137 27.573 28.6137 27.2689C28.6137 26.9648 28.3605 26.719 28.0485 26.719Z" fill="white"/>
<path d="M16.1794 18.4703C16.1794 18.7744 16.4326 19.0202 16.7446 19.0202H25.2225C25.5345 19.0202 25.7877 18.7744 25.7877 18.4703C25.7877 18.1662 25.5345 17.9204 25.2225 17.9204H16.7446C16.4326 17.9204 16.1794 18.1662 16.1794 18.4703Z" fill="white"/>
<path d="M14.32 18.861C14.4217 18.7565 14.4839 18.6135 14.4839 18.4705C14.4839 18.327 14.4217 18.184 14.32 18.0801C14.1109 17.8766 13.7265 17.8766 13.5174 18.0801C13.4157 18.184 13.3535 18.327 13.3535 18.4705C13.3535 18.6135 13.4157 18.7565 13.5174 18.861C13.6248 18.9649 13.7718 19.0204 13.9187 19.0204C14.0657 19.0204 14.2126 18.9649 14.32 18.861Z" fill="white"/>
<path d="M7.70154 22.8695C7.70154 23.1736 7.95474 23.4194 8.26673 23.4194H16.7446C17.0566 23.4194 17.3098 23.1736 17.3098 22.8695C17.3098 22.5654 17.0566 22.3196 16.7446 22.3196H8.26673C7.95474 22.3196 7.70154 22.5654 7.70154 22.8695Z" fill="white"/>
<path d="M5.4408 23.4199C5.58775 23.4199 5.7347 23.3594 5.84209 23.2604C5.94382 23.156 6.00599 23.013 6.00599 22.87C6.00599 22.7265 5.94382 22.5835 5.84209 22.4851C5.63297 22.2761 5.24864 22.2761 5.03952 22.4796C4.93778 22.5835 4.87561 22.7265 4.87561 22.87C4.87561 23.013 4.93778 23.156 5.03952 23.2604C5.1469 23.3594 5.2882 23.4199 5.4408 23.4199Z" fill="white"/>
<path d="M28.0485 19.0204C28.1954 19.0204 28.3424 18.9649 28.4498 18.861C28.5571 18.7565 28.6137 18.6135 28.6137 18.4705C28.6137 18.327 28.5571 18.184 28.4498 18.0801C28.235 17.8766 27.8563 17.8766 27.6472 18.0801C27.5454 18.184 27.4833 18.327 27.4833 18.4705C27.4833 18.6135 27.5454 18.7565 27.6472 18.861C27.7546 18.9649 27.9015 19.0204 28.0485 19.0204Z" fill="white"/>
<path d="M19.5706 26.719H5.4408C5.12882 26.719 4.87561 26.9648 4.87561 27.2689C4.87561 27.573 5.12882 27.8188 5.4408 27.8188H19.5706C19.8826 27.8188 20.1358 27.573 20.1358 27.2689C20.1358 26.9648 19.8826 26.719 19.5706 26.719Z" fill="white"/>
</svg>
