<svg width="33" height="33" viewBox="0 0 33 33" fill="none" xmlns="http://www.w3.org/2000/svg">
<path fill-rule="evenodd" clip-rule="evenodd" d="M3.25031 1.25492C3.25031 1.04402 3.42854 0.873047 3.6484 0.873047H32.3115C32.5314 0.873047 32.7096 1.04402 32.7096 1.25492V28.877C32.7096 29.0879 32.5314 29.2589 32.3115 29.2589C32.0916 29.2589 31.9134 29.0879 31.9134 28.877V1.63679H3.6484C3.42854 1.63679 3.25031 1.46582 3.25031 1.25492Z" fill="white" stroke="white" stroke-width="0.5" stroke-linecap="round" stroke-linejoin="round"/>
<path d="M3.6681 29.4353L3.7931 29.4353L3.7931 29.3103L3.79309 5.55161L5.41897 7.17748C5.62202 7.38053 5.95124 7.38053 6.1543 7.17748C6.35735 6.97442 6.35735 6.6452 6.1543 6.44215L3.6408 3.92865C3.43775 3.7256 3.10853 3.7256 2.90547 3.92865L0.391976 6.44215C0.18892 6.6452 0.18892 6.97442 0.391976 7.17748C0.595033 7.38054 0.924251 7.38054 1.12731 7.17748L2.75318 5.55161L2.75318 29.3103L2.75318 29.4353L2.87818 29.4353L3.6681 29.4353Z" fill="white" stroke="white" stroke-width="0.25"/>
<path d="M2.7522 29.7045V29.8295H2.8772L26.7603 29.8295L25.1262 31.4552C24.922 31.6583 24.922 31.9879 25.1262 32.191C25.33 32.3937 25.6602 32.3937 25.864 32.191L28.3906 29.6775C28.5947 29.4744 28.5947 29.1448 28.3906 28.9417L25.864 26.4282C25.6602 26.2254 25.33 26.2254 25.1262 26.4282C24.922 26.6313 24.922 26.9609 25.1262 27.164L26.7603 28.7896L2.8772 28.7896H2.7522V28.9146V29.7045Z" fill="white" stroke="white" stroke-width="0.25"/>
<path fill-rule="evenodd" clip-rule="evenodd" d="M14.1624 0.988727C14.3167 1.14297 14.3167 1.39304 14.1624 1.54728L9.42295 6.28677C9.26871 6.44101 9.01864 6.44101 8.8644 6.28677C8.71016 6.13253 8.71016 5.88246 8.8644 5.72822L13.6039 0.988727C13.7581 0.834487 14.0082 0.834487 14.1624 0.988727Z" fill="white" stroke="white" stroke-width="0.5" stroke-linecap="round" stroke-linejoin="round"/>
<path fill-rule="evenodd" clip-rule="evenodd" d="M32.4623 19.8154C32.6165 19.9696 32.6165 20.2197 32.4623 20.3739L28.1177 24.7185C27.9635 24.8727 27.7134 24.8727 27.5592 24.7185C27.4049 24.5642 27.4049 24.3142 27.5592 24.1599L31.9037 19.8154C32.0579 19.6611 32.308 19.6611 32.4623 19.8154Z" fill="white" stroke="white" stroke-width="0.5" stroke-linecap="round" stroke-linejoin="round"/>
<path fill-rule="evenodd" clip-rule="evenodd" d="M20.0851 0.986954C20.2403 1.14021 20.2419 1.39028 20.0886 1.5455L9.81975 11.946C9.66649 12.1013 9.41642 12.1029 9.2612 11.9496C9.10598 11.7964 9.10439 11.5463 9.25765 11.3911L19.5265 0.990512C19.6798 0.835292 19.9299 0.833699 20.0851 0.986954Z" fill="white" stroke="white" stroke-width="0.5" stroke-linecap="round" stroke-linejoin="round"/>
<path fill-rule="evenodd" clip-rule="evenodd" d="M32.5938 13.2321C32.7481 13.3864 32.7481 13.6364 32.5938 13.7907L22.5882 23.7963C22.434 23.9505 22.1839 23.9505 22.0297 23.7963C21.8754 23.642 21.8754 23.392 22.0297 23.2377L32.0353 13.2321C32.1895 13.0779 32.4396 13.0779 32.5938 13.2321Z" fill="white" stroke="white" stroke-width="0.5" stroke-linecap="round" stroke-linejoin="round"/>
<path fill-rule="evenodd" clip-rule="evenodd" d="M26.4084 1.12258C26.5614 1.27806 26.5594 1.52813 26.4039 1.68112L9.94736 17.8744C9.79188 18.0274 9.54182 18.0254 9.38883 17.8699C9.23584 17.7144 9.23785 17.4643 9.39333 17.3113L25.8499 1.11808C26.0054 0.965084 26.2554 0.967101 26.4084 1.12258Z" fill="white" stroke="white" stroke-width="0.5" stroke-linecap="round" stroke-linejoin="round"/>
<path fill-rule="evenodd" clip-rule="evenodd" d="M32.5939 7.04488C32.7482 7.19912 32.7482 7.44919 32.5939 7.60343L16.0057 24.1917C15.8515 24.3459 15.6014 24.3459 15.4472 24.1917C15.2929 24.0374 15.2929 23.7873 15.4472 23.6331L32.0354 7.04488C32.1896 6.89064 32.4397 6.89064 32.5939 7.04488Z" fill="white" stroke="white" stroke-width="0.5" stroke-linecap="round" stroke-linejoin="round"/>
<path fill-rule="evenodd" clip-rule="evenodd" d="M32.3306 1.12032C32.4849 1.27456 32.4849 1.52463 32.3306 1.67887L9.68638 24.3231C9.53214 24.4774 9.28207 24.4774 9.12783 24.3231C8.97359 24.1689 8.97359 23.9188 9.12783 23.7646L31.7721 1.12032C31.9263 0.966079 32.1764 0.966079 32.3306 1.12032Z" fill="white" stroke="white" stroke-width="0.5" stroke-linecap="round" stroke-linejoin="round"/>
</svg>
